<?xml version="1.0" encoding="utf-8"?>
<svg viewBox="242.1072 275.2482 466.1928 451.5619" xmlns="http://www.w3.org/2000/svg">
  <path d="M4500 30594 c-19 -2 -80 -9 -135 -15 -588 -61 -1113 -321 -1442 -712 -243 -291 -401 -638 -475 -1047 -29 -166 -36 -480 -14 -661 40 -317 121 -590 258 -864 328 -661 900 -1080 1618 -1185 550 -80 1141 13 1599 251 423 221 737 545 951 984 158 323 223 593 223 930 0 384 -92 753 -278 1112 -342 659 -913 1068 -1660 1189 -96 15 -557 28 -645 18z m533 -139 c757 -89 1338 -493 1671 -1165 151 -304 230 -599 251 -940 17 -268 -64 -640 -201 -930 -303 -637 -897 -1066 -1629 -1175 -610 -91 -1173 14 -1610 302 -741 488 -1128 1527 -900 2419 245 957 1001 1496 2110 1503 104 1 234 -5 308 -14z" transform="matrix(0.10000000149011613, 0, 0, -0.10000000149011613, 2.842170943040401e-14, 3335)"/>
  <path d="M5573 28990 c-54 -11 -112 -41 -145 -77 -34 -35 -74 -116 -87 -173 -14 -60 -14 -196 0 -262 28 -134 118 -251 214 -278 227 -64 422 183 372 473 -16 90 -52 174 -99 232 -56 67 -163 103 -255 85z" transform="matrix(0.10000000149011613, 0, 0, -0.10000000149011613, 2.842170943040401e-14, 3335)"/>
  <path d="M3786 28895 c-64 -23 -108 -66 -151 -150 l-40 -78 0 -141 c1 -157 14 -209 79 -303 108 -157 339 -149 445 16 52 81 73 154 74 256 1 183 -78 342 -197 396 -49 22 -153 25 -210 4z" transform="matrix(0.10000000149011613, 0, 0, -0.10000000149011613, 2.842170943040401e-14, 3335)"/>
  <path d="M5460 27917 c-23 -12 -26 -21 -36 -124 -7 -62 -20 -136 -29 -165 -80 -247 -259 -367 -546 -368 -189 0 -314 46 -425 156 -87 86 -128 174 -168 355 -4 17 -17 31 -37 39 -27 11 -33 11 -57 -7 -15 -11 -29 -30 -30 -43 -6 -39 28 -160 67 -245 94 -199 231 -313 441 -366 71 -18 103 -20 234 -16 205 6 313 39 439 135 141 107 237 321 241 538 1 79 -1 87 -23 105 -27 22 -37 23 -71 6z" transform="matrix(0.10000000149011613, 0, 0, -0.10000000149011613, 2.842170943040401e-14, 3335)"/>
</svg>