<?xml version="1.0" encoding="utf-8"?>
<svg viewBox="846.1539 881.2716 466.1461 451.2283" xmlns="http://www.w3.org/2000/svg">
  <path d="M10550 24529 c-536 -38 -1001 -207 -1344 -488 -94 -78 -247 -237 -319 -333 -216 -289 -364 -665 -412 -1047 -21 -166 -17 -490 9 -656 23 -143 85 -385 131 -511 84 -229 236 -501 382 -685 282 -354 665 -601 1107 -714 234 -60 328 -70 641 -70 300 0 392 9 622 60 682 151 1235 580 1533 1190 154 315 223 605 223 935 0 362 -83 710 -252 1055 -437 891 -1261 1340 -2321 1264z m573 -145 c377 -52 710 -183 985 -388 504 -375 828 -984 882 -1657 32 -399 -103 -887 -348 -1249 -74 -110 -178 -240 -192 -240 -9 0 -20 50 -20 89 0 14 14 80 30 145 54 214 41 270 -90 411 -120 129 -123 142 -126 460 -1 214 -4 247 -23 306 -32 100 -91 181 -242 333 -77 77 -139 144 -139 150 0 6 9 25 20 41 57 85 79 279 44 396 -52 175 -145 258 -289 259 -125 0 -217 -65 -267 -189 -20 -49 -23 -74 -23 -196 0 -129 2 -145 27 -205 23 -57 27 -82 30 -205 4 -126 8 -150 37 -234 44 -130 89 -212 168 -306 84 -101 116 -169 121 -257 4 -58 -2 -87 -36 -200 -90 -294 -80 -370 78 -568 74 -93 100 -138 100 -170 0 -25 -21 -71 -78 -166 -56 -94 -69 -159 -54 -266 6 -46 14 -95 18 -109 6 -26 2 -28 -73 -57 -293 -113 -550 -157 -923 -157 -259 0 -304 4 -508 46 l-103 22 7 46 c13 98 36 196 54 231 10 19 49 74 87 121 146 180 153 245 56 543 -40 125 -72 193 -115 249 -34 42 -58 112 -58 166 0 60 26 141 89 282 72 160 91 229 91 325 0 101 -27 178 -113 325 -102 173 -104 179 -72 272 30 89 34 218 10 310 -54 208 -214 311 -389 251 -166 -57 -249 -328 -171 -559 16 -47 16 -49 -14 -139 -42 -128 -58 -253 -42 -346 13 -82 42 -144 116 -250 130 -186 128 -240 -21 -467 -121 -187 -149 -262 -142 -388 4 -78 7 -86 75 -215 104 -197 105 -231 12 -310 -27 -22 -60 -61 -75 -85 -14 -25 -31 -45 -36 -45 -18 0 -147 109 -233 196 -353 355 -583 858 -646 1413 -15 136 -7 446 16 571 84 466 264 822 566 1116 207 201 418 329 709 428 372 128 845 174 1233 120z m485 -1744 c26 0 63 5 83 10 l36 10 139 -140 c239 -242 246 -259 249 -600 3 -321 16 -366 149 -507 110 -117 112 -126 65 -308 -36 -141 -37 -237 -1 -317 l21 -48 -61 -55 c-106 -95 -376 -275 -414 -275 -17 0 -37 103 -31 156 3 28 25 79 61 143 67 117 80 158 73 229 -7 63 -36 118 -125 227 -122 152 -129 198 -60 414 41 129 43 142 43 256 0 118 -1 121 -37 195 -20 41 -68 112 -106 158 -38 46 -84 112 -101 148 -40 82 -81 224 -81 280 0 43 1 43 26 34 14 -6 46 -10 72 -10z m-1836 -61 c35 -18 54 -21 117 -17 43 3 90 12 108 21 30 16 32 16 37 -1 3 -9 35 -66 71 -126 136 -229 138 -289 18 -551 -73 -159 -97 -256 -90 -355 7 -85 20 -130 54 -180 12 -19 35 -52 49 -73 30 -46 108 -274 125 -367 11 -60 10 -70 -8 -110 -11 -25 -53 -85 -93 -135 -40 -49 -82 -109 -92 -132 -21 -48 -57 -203 -58 -246 0 -40 -19 -42 -97 -11 -101 40 -304 144 -310 160 -7 20 29 72 91 131 78 74 91 102 91 198 -1 87 -5 98 -110 295 -38 71 -45 93 -45 140 1 73 30 143 119 279 123 189 158 288 141 398 -11 64 -35 111 -125 244 -101 148 -111 206 -68 392 8 37 19 67 24 67 6 0 28 -10 51 -21z" transform="matrix(0.10000000149011613, 0, 0, -0.10000000149011613, 2.842170943040401e-14, 3335)"/>
  <path d="M10692 22423 c-365 -378 -370 -385 -322 -433 49 -49 50 -48 430 353 l55 57 243 -215 c160 -142 251 -215 265 -215 13 0 33 7 45 16 18 12 22 24 20 52 -3 34 -21 52 -243 250 -272 242 -310 272 -339 272 -14 0 -65 -46 -154 -137z" transform="matrix(0.10000000149011613, 0, 0, -0.10000000149011613, 2.842170943040401e-14, 3335)"/>
</svg>