<?xml version="1.0" encoding="utf-8"?>
<svg viewBox="841.1373 275.15 465.4372 451.544" xmlns="http://www.w3.org/2000/svg">
  <path d="M10297 30585 c-519 -63 -939 -257 -1259 -581 -116 -118 -181 -198 -260 -319 -251 -386 -383 -864 -365 -1320 20 -475 143 -899 365 -1259 253 -409 611 -704 1056 -871 555 -207 1295 -202 1836 12 527 209 929 581 1179 1092 201 411 261 834 185 1302 -59 366 -212 744 -417 1031 -373 522 -921 832 -1613 913 -159 18 -553 18 -707 0z m773 -139 c757 -120 1314 -523 1631 -1181 170 -353 259 -796 230 -1148 -51 -615 -396 -1199 -914 -1543 -526 -350 -1265 -455 -1939 -275 -874 233 -1446 971 -1529 1971 -43 524 117 1066 436 1475 312 400 757 638 1332 710 150 19 609 13 753 -9z" transform="matrix(0.10000000149011613, 0, 0, -0.10000000149011613, 2.842170943040401e-14, 3335)"/>
  <path d="M9692 29614 c-16 -11 -22 -25 -22 -50 0 -33 20 -56 263 -305 144 -149 272 -282 284 -297 l21 -27 -356 -156 c-385 -169 -397 -176 -376 -236 5 -16 21 -32 36 -37 23 -8 81 15 432 168 222 98 414 185 425 193 14 9 21 25 21 45 0 26 -22 53 -134 172 -339 355 -532 547 -551 546 -11 0 -31 -7 -43 -16z" transform="matrix(0.10000000149011613, 0, 0, -0.10000000149011613, 2.842170943040401e-14, 3335)"/>
  <path d="M11627 29128 c-213 -149 -363 -260 -369 -274 -8 -17 -8 -31 -1 -47 14 -31 777 -520 819 -525 19 -2 37 2 47 13 22 22 22 78 0 97 -10 8 -168 111 -351 228 -183 117 -330 216 -325 220 4 4 142 100 305 214 164 114 304 217 313 229 20 29 19 53 -5 77 -40 40 -59 31 -433 -232z" transform="matrix(0.10000000149011613, 0, 0, -0.10000000149011613, 2.842170943040401e-14, 3335)"/>
  <path d="M9450 28260 c-41 -4 -92 -14 -112 -23 -55 -23 -126 -94 -158 -157 -109 -218 -34 -553 145 -640 35 -17 93 -26 302 -45 1076 -101 2072 -140 2383 -95 213 31 340 182 340 407 0 93 -15 163 -51 238 -43 89 -111 156 -179 175 -103 30 -2391 161 -2575 148 -11 0 -54 -4 -95 -8z m87 -212 c-4 -46 -7 -100 -7 -121 l0 -37 -127 6 c-71 4 -131 9 -134 13 -14 13 25 112 59 152 45 52 81 68 156 69 l59 0 -6 -82z m455 75 c2 -5 2 -64 0 -132 l-4 -123 -156 7 c-87 4 -161 11 -165 15 -5 4 -5 60 -1 124 l7 116 158 0 c87 0 159 -3 161 -7z m433 -19 l41 -5 -3 -97 c-2 -53 -6 -110 -8 -127 l-5 -30 -122 7 c-68 3 -142 7 -165 7 l-43 1 0 93 c0 50 3 109 6 130 l7 38 126 -6 c69 -3 144 -8 166 -11z m524 -30 l43 -6 -7 -116 c-4 -64 -9 -121 -12 -125 -5 -8 -214 -3 -333 9 l-55 5 7 122 c3 67 7 124 7 127 1 6 283 -7 350 -16z m481 -30 c13 -3 14 -22 9 -121 -4 -65 -7 -120 -8 -122 -1 -5 -314 9 -319 14 -2 2 -1 58 3 125 l8 122 146 -7 c80 -3 153 -8 161 -11z m438 -31 c20 -5 22 -11 22 -78 0 -40 -3 -93 -6 -118 l-6 -45 -77 4 c-42 3 -112 7 -156 10 l-80 5 3 97 c1 53 5 108 8 121 l5 24 132 -7 c73 -4 142 -10 155 -13z m235 -31 c42 -28 76 -80 97 -150 11 -35 20 -66 20 -69 0 -7 -198 1 -203 7 -2 3 -1 56 1 118 l4 112 27 0 c14 0 38 -8 54 -18z m-2660 -218 l77 -7 0 -108 0 -109 -38 0 c-53 0 -101 16 -130 42 -30 29 -68 103 -77 151 l-7 37 49 0 c28 0 84 -3 126 -6z m535 -28 c1 -2 -1 -56 -4 -121 l-7 -118 -91 7 c-50 4 -121 9 -158 13 l-68 6 0 115 0 115 163 -8 c89 -4 163 -8 165 -9z m438 -22 l30 -4 -4 -118 c-2 -64 -7 -120 -11 -124 -3 -3 -79 -1 -168 5 l-163 11 0 46 c0 26 3 82 7 124 l6 77 136 -6 c75 -3 150 -8 167 -11z m398 -20 l148 -6 -7 -112 c-9 -160 -2 -149 -99 -142 -44 3 -127 9 -183 12 l-103 7 0 82 c0 45 3 103 6 129 l7 47 41 -5 c23 -3 108 -8 190 -12z m605 -31 c6 -5 1 -202 -6 -230 -5 -22 -6 -22 -167 -16 -88 3 -163 7 -165 9 -2 2 0 60 4 129 l7 126 162 -7 c88 -4 163 -8 165 -11z m406 -19 l50 -5 -3 -102 c-2 -80 -6 -105 -19 -114 -12 -9 -61 -13 -162 -13 l-146 0 3 83 c1 45 5 101 8 124 l5 43 107 -6 c59 -2 130 -7 157 -10z m373 -19 c15 -5 -4 -57 -38 -106 -23 -31 -89 -73 -132 -83 l-28 -6 0 82 c0 129 -4 124 98 120 48 -2 93 -5 100 -7z" transform="matrix(0.10000000149011613, 0, 0, -0.10000000149011613, 2.842170943040401e-14, 3335)"/>
</svg>