<?xml version="1.0" encoding="utf-8"?>
<svg viewBox="2057.7469 2095.1638 464.7531 451.4193" xmlns="http://www.w3.org/2000/svg">
  <path d="M22510 12389 c-632 -65 -1148 -340 -1491 -793 -187 -248 -332 -577 -399 -905 -55 -275 -57 -585 -4 -896 94 -559 376 -1073 768 -1402 438 -368 1029 -544 1684 -503 531 34 971 194 1342 490 97 78 294 276 362 365 204 268 355 595 425 922 26 121 28 142 28 393 0 233 -3 280 -23 393 -48 264 -126 499 -243 729 -351 688 -971 1110 -1768 1203 -139 16 -537 18 -681 4z m745 -143 c542 -87 991 -329 1307 -705 277 -329 467 -766 523 -1204 19 -153 19 -410 0 -543 -43 -285 -164 -595 -330 -844 -344 -516 -862 -825 -1530 -915 -144 -20 -464 -22 -615 -6 -760 85 -1332 480 -1656 1146 -120 246 -203 539 -233 817 -14 125 -14 389 0 498 49 395 207 781 440 1070 319 396 752 621 1339 696 145 18 618 12 755 -10z" transform="matrix(0.10000000149011612, 0, 0, -0.10000000149011612, 0, 3335)"/>
  <path d="M21482 11104 c-16 -11 -22 -25 -22 -52 0 -33 14 -49 199 -236 l200 -201 -200 -219 c-171 -189 -199 -224 -199 -251 0 -38 26 -65 63 -65 32 0 16 -15 245 237 l183 202 182 -185 c195 -197 212 -209 257 -164 43 43 32 62 -160 255 -99 99 -180 186 -180 192 0 6 81 100 180 209 157 173 180 203 178 228 -2 18 -14 37 -30 49 -25 19 -30 19 -56 6 -16 -8 -102 -95 -192 -194 -89 -99 -167 -184 -171 -190 -6 -5 -89 70 -212 193 -127 126 -211 202 -223 202 -11 0 -30 -7 -42 -16z" transform="matrix(0.10000000149011612, 0, 0, -0.10000000149011612, 0, 3335)"/>
  <path d="M23227 11100 c-49 -39 -39 -61 95 -199 68 -69 158 -163 202 -207 l78 -82 -104 -113 c-277 -303 -298 -328 -298 -354 0 -34 33 -65 69 -65 25 0 56 29 228 219 l198 219 185 -184 c118 -117 193 -184 205 -184 38 0 65 28 65 67 0 34 -13 50 -182 219 l-182 183 92 101 c291 317 272 294 272 333 0 43 -35 73 -74 63 -13 -3 -95 -85 -195 -196 -95 -104 -177 -193 -183 -196 -7 -5 -85 68 -202 189 -118 121 -201 199 -216 202 -18 4 -34 -1 -53 -15z" transform="matrix(0.10000000149011612, 0, 0, -0.10000000149011612, 0, 3335)"/>
  <path d="M22745 9639 c-358 -47 -586 -286 -620 -650 -7 -70 -5 -79 14 -98 27 -27 -2 -27 716 9 325 16 605 30 623 30 44 0 72 30 72 78 0 66 -38 193 -86 292 -81 164 -222 281 -392 325 -73 19 -237 27 -327 14z m246 -133 c191 -34 332 -163 394 -359 14 -44 24 -82 21 -84 -2 -3 -220 -15 -483 -28 -263 -13 -520 -26 -570 -30 l-93 -5 0 24 c0 48 51 185 91 245 88 132 228 213 414 240 88 13 141 12 226 -3z" transform="matrix(0.10000000149011612, 0, 0, -0.10000000149011612, 0, 3335)"/>
</svg>