<?xml version="1.0" encoding="utf-8"?>
<svg viewBox="241.9038 881.2779 466.6038 451.79" xmlns="http://www.w3.org/2000/svg">
  <path d="M4511 24529 c-788 -57 -1375 -373 -1745 -941 -122 -187 -238 -468 -290 -700 -54 -240 -71 -533 -45 -766 25 -228 91 -495 172 -697 288 -715 830 -1191 1538 -1349 304 -68 699 -75 1039 -20 754 123 1354 558 1680 1219 264 533 295 1085 97 1685 -60 182 -183 436 -286 590 -467 702 -1227 1046 -2160 979z m573 -145 c591 -82 1064 -354 1407 -810 259 -345 423 -785 460 -1231 38 -470 -141 -1016 -463 -1411 -338 -413 -813 -670 -1403 -758 -142 -21 -486 -29 -626 -15 -750 78 -1324 476 -1655 1146 -119 243 -203 522 -240 805 -24 184 -15 468 20 653 54 284 165 559 317 788 116 174 315 373 486 486 318 210 688 327 1144 363 147 11 411 4 553 -16z" transform="matrix(0.10000000149011613, 0, 0, -0.10000000149011613, 2.842170943040401e-14, 3335)"/>
  <path d="M6175 23325 c-14 -13 -25 -33 -25 -45 0 -11 31 -53 70 -96 261 -282 337 -589 209 -847 -128 -259 -407 -455 -674 -474 -232 -17 -488 113 -622 315 -50 76 -92 202 -100 300 -21 283 192 592 476 689 167 57 369 -3 535 -158 149 -139 206 -286 172 -446 -22 -105 -61 -179 -131 -249 -113 -114 -279 -171 -421 -145 -135 25 -238 104 -297 229 -28 59 -32 77 -32 152 0 76 3 91 30 140 69 126 249 176 387 107 64 -33 91 -78 86 -148 -8 -107 -70 -179 -155 -179 -38 0 -49 5 -76 35 -72 82 -162 -4 -98 -94 52 -73 198 -95 299 -45 58 29 91 64 129 138 21 41 27 69 31 141 4 84 2 94 -25 145 -52 98 -150 155 -288 166 -249 21 -438 -133 -452 -369 -7 -103 8 -177 54 -268 112 -224 364 -331 631 -268 26 6 85 29 131 51 148 71 267 215 317 383 24 81 24 230 0 310 -70 236 -295 442 -556 510 -95 25 -242 17 -335 -19 -209 -80 -406 -273 -488 -479 -153 -383 17 -809 396 -992 115 -55 186 -74 307 -81 226 -15 436 61 639 229 144 119 271 315 306 472 27 122 18 293 -24 415 -52 155 -168 338 -285 448 -61 58 -85 64 -121 27z" transform="matrix(0.10000000149011613, 0, 0, -0.10000000149011613, 2.842170943040401e-14, 3335)"/>
  <path d="M3681 23299 c-420 -52 -694 -287 -767 -657 -8 -41 -14 -127 -14 -191 0 -132 9 -151 67 -151 52 0 60 21 61 155 0 235 77 412 237 545 145 120 424 196 631 170 175 -22 292 -79 404 -197 115 -121 170 -263 170 -443 0 -190 -56 -328 -184 -456 -115 -115 -215 -167 -384 -200 -127 -24 -261 -12 -366 35 -92 40 -195 163 -241 286 -78 206 -42 383 108 529 209 206 536 236 705 65 63 -64 85 -131 80 -245 -3 -79 -8 -100 -38 -160 -85 -174 -246 -249 -390 -183 -200 93 -228 280 -55 364 41 21 61 25 90 19 52 -9 95 -48 95 -85 0 -34 39 -79 67 -79 30 0 60 27 67 61 24 124 -128 253 -278 235 -104 -12 -216 -94 -262 -191 -33 -70 -33 -170 1 -243 48 -103 171 -197 300 -229 194 -48 408 83 502 307 25 60 27 75 28 205 0 131 -2 144 -27 198 -32 67 -112 156 -175 192 -123 73 -298 94 -457 56 -132 -32 -254 -99 -347 -191 -130 -129 -182 -248 -182 -420 -1 -161 41 -290 138 -425 80 -112 175 -180 311 -221 81 -25 311 -26 404 -1 263 70 461 231 559 452 78 176 82 456 9 628 -95 225 -283 390 -511 447 -93 23 -254 32 -356 19z" transform="matrix(0.10000000149011613, 0, 0, -0.10000000149011613, 2.842170943040401e-14, 3335)"/>
  <path d="M6076 21485 c-8 -9 -34 -51 -56 -94 -73 -140 -140 -198 -192 -164 -12 9 -68 60 -123 114 -116 113 -159 139 -230 139 -64 -1 -123 -32 -320 -170 -116 -82 -151 -101 -164 -93 -9 5 -38 41 -64 79 -95 137 -142 169 -241 162 -106 -7 -168 -50 -285 -196 -38 -49 -85 -97 -104 -107 -33 -17 -37 -18 -60 -2 -14 9 -58 56 -98 104 -116 142 -162 173 -254 173 -95 0 -149 -38 -263 -187 -33 -43 -74 -90 -91 -105 -36 -31 -41 -68 -11 -98 49 -49 105 -15 214 129 81 107 110 131 156 131 34 0 62 -27 172 -160 30 -36 76 -80 103 -98 45 -31 55 -34 107 -30 77 6 140 49 224 155 85 106 134 150 179 159 51 9 78 -8 127 -85 59 -90 94 -129 139 -152 71 -36 90 -29 304 121 167 117 217 144 248 136 13 -3 76 -57 140 -120 138 -136 176 -156 262 -137 65 15 123 55 170 118 42 58 125 215 125 237 0 45 -81 74 -114 41z" transform="matrix(0.10000000149011613, 0, 0, -0.10000000149011613, 2.842170943040401e-14, 3335)"/>
</svg>