<?xml version="1.0" encoding="utf-8"?>
<svg viewBox="1439.517 274.4095 466.883 452.3881" xmlns="http://www.w3.org/2000/svg">
  <path d="M16560 30600 c-263 -18 -518 -66 -740 -139 -784 -259 -1278 -856 -1407 -1701 -22 -144 -24 -483 -4 -615 48 -320 128 -579 260 -844 485 -967 1436 -1391 2591 -1155 278 57 606 192 831 343 447 299 768 753 904 1276 54 209 69 326 69 535 0 371 -87 713 -274 1080 -267 523 -712 917 -1242 1099 -288 99 -658 144 -988 121z m510 -146 c359 -44 702 -181 985 -394 443 -333 754 -861 854 -1447 28 -166 36 -326 22 -463 -81 -804 -571 -1465 -1301 -1754 -404 -160 -880 -219 -1298 -161 -932 130 -1605 835 -1784 1871 -31 180 -31 482 0 664 100 586 373 1029 817 1325 443 296 1095 433 1705 359z" transform="matrix(0.10000000149011613, 0, 0, -0.10000000149011613, 2.842170943040401e-14, 3335)"/>
  <path d="M17510 29240 c-312 -284 -330 -302 -330 -335 0 -25 6 -39 23 -49 56 -37 835 -399 859 -399 40 0 58 20 58 65 0 48 37 26 -400 232 -190 90 -345 167 -345 172 0 6 125 124 278 263 253 232 277 256 277 286 0 18 -8 39 -18 48 -44 40 -56 32 -402 -283z" transform="matrix(0.10000000149011613, 0, 0, -0.10000000149011613, 2.842170943040401e-14, 3335)"/>
  <path d="M15527 29472 c-20 -22 -22 -62 -4 -84 6 -8 149 -125 317 -258 168 -134 309 -246 313 -250 4 -4 -143 -98 -328 -210 -226 -136 -340 -210 -347 -226 -25 -54 37 -108 91 -81 47 24 736 440 754 456 12 10 17 26 15 50 -3 34 -21 51 -368 328 -387 310 -402 320 -443 275z" transform="matrix(0.10000000149011613, 0, 0, -0.10000000149011613, 2.842170943040401e-14, 3335)"/>
  <path d="M17748 28253 c-8 -10 -45 -99 -82 -198 -38 -99 -71 -185 -75 -192 -4 -8 -45 38 -106 119 -140 185 -152 198 -184 198 -48 0 -49 -2 -212 -429 -9 -21 -20 -8 -134 153 -179 252 -181 252 -305 -36 -46 -106 -86 -196 -90 -201 -3 -4 -58 67 -121 158 -116 169 -132 184 -183 171 -27 -7 -34 -22 -108 -236 -28 -80 -51 -146 -53 -148 -1 -2 -60 62 -130 142 -70 79 -136 147 -148 150 -11 3 -32 0 -46 -7 -22 -10 -39 -50 -118 -267 -50 -140 -92 -263 -92 -273 -1 -10 10 -29 25 -43 19 -20 31 -24 52 -19 15 3 32 13 38 21 7 8 42 99 79 202 37 103 68 188 69 189 2 2 60 -62 130 -142 184 -209 195 -208 276 27 29 84 57 164 62 177 8 22 19 9 124 -143 115 -166 115 -166 153 -166 21 0 43 6 49 13 6 6 47 98 92 202 45 105 86 194 90 198 4 5 61 -66 126 -158 64 -92 128 -174 141 -182 14 -9 33 -13 49 -9 29 8 39 27 135 279 35 92 67 167 70 167 3 0 61 -72 128 -160 112 -147 124 -160 153 -160 17 0 39 7 49 16 9 8 50 103 90 210 40 107 75 194 78 193 3 0 61 -67 129 -150 113 -136 126 -149 156 -149 19 0 40 8 48 18 15 16 128 394 128 427 0 45 -81 73 -113 38 -8 -10 -31 -74 -51 -142 -20 -68 -38 -126 -40 -128 -2 -3 -59 61 -126 141 -111 133 -125 146 -154 146 -19 0 -39 -7 -48 -17z" transform="matrix(0.10000000149011613, 0, 0, -0.10000000149011613, 2.842170943040401e-14, 3335)"/>
</svg>